<svg width="15" height="15" viewBox="0 0 15 15" fill="none" xmlns="http://www.w3.org/2000/svg">
<g clip-path="url(#clip0_38_60)">
<path d="M6.8483 0.646168C6.32388 0.787515 5.88253 1.08521 5.56407 1.48501L5.56003 1.49021C5.24965 1.88655 5.06215 2.39194 5.06215 2.94117C5.06215 3.57636 5.31253 4.15328 5.72041 4.5779L5.71984 4.57732C5.89638 4.71463 6.01522 4.91828 6.03888 5.15021V5.15367C6.08041 5.38155 6.10407 5.64463 6.10407 5.91232C6.10407 6.18001 6.08041 6.44309 6.03484 6.69809L6.03888 6.67098C5.77061 7.94251 4.87753 8.95732 3.70349 9.39232L3.67811 9.4004L3.31349 9.53886L3.03657 9.46213C2.84099 9.40213 2.61541 9.36751 2.38234 9.36751C1.99753 9.36751 1.63522 9.46155 1.31618 9.62771L1.32888 9.62136C0.536761 10.0166 0.00195312 10.8208 0.00195312 11.7502C0.00195312 12.6629 0.517722 13.4556 1.27407 13.8519L1.28734 13.8583C1.60176 14.0227 1.97445 14.1196 2.36965 14.1196C3.47272 14.1196 4.40041 13.3667 4.6658 12.3467L4.66926 12.33C4.73849 12.045 4.79734 11.9689 5.18676 11.6775C5.54445 11.4179 5.95984 11.2085 6.40695 11.0706L6.43695 11.0625C6.73464 10.98 7.07676 10.9327 7.42926 10.9327C8.42965 10.9327 9.34118 11.3129 10.0271 11.9366L10.0243 11.9337C10.1437 12.0271 10.2239 12.1662 10.2389 12.3237V12.326C10.3416 12.7506 10.5614 13.1141 10.8625 13.391L10.8643 13.3921C11.0281 13.5756 11.2254 13.725 11.447 13.8317L11.4579 13.8364C11.7429 13.991 12.0821 14.0816 12.4427 14.0816C12.5108 14.0816 12.5777 14.0781 12.6435 14.0723L12.6348 14.0729C12.8679 14.0729 13.0923 14.0348 13.3023 13.9644L13.2873 13.9685C14.0621 13.6944 14.646 13.0569 14.8398 12.266L14.8433 12.2492C14.875 12.0866 14.8935 11.8996 14.8935 11.7087C14.8935 11.5108 14.8739 11.3169 14.8364 11.13L14.8393 11.1485C14.6171 10.3489 14.0171 9.72578 13.2487 9.47598L13.2314 9.47136C13.0214 9.41078 12.7802 9.37617 12.5304 9.37617C12.3204 9.37617 12.1168 9.40098 11.9212 9.44713L11.9391 9.44367C11.845 9.48175 11.736 9.50367 11.6218 9.50367C11.4625 9.50367 11.3131 9.46098 11.185 9.38598L11.1891 9.38828C9.76003 8.84886 8.76253 7.49251 8.76253 5.90309C8.76253 5.65213 8.78734 5.40694 8.83465 5.16982L8.83061 5.19348L8.89291 4.86694L9.12368 4.62059C9.52695 4.22367 9.78484 3.68021 9.81138 3.07675V3.07213C9.81368 3.03232 9.81484 2.98617 9.81484 2.93886C9.81484 1.83809 9.06368 0.913284 8.04599 0.648476L8.02926 0.645015C7.85215 0.601745 7.64849 0.577515 7.43907 0.577515C7.22907 0.577515 7.02484 0.602322 6.82868 0.649053L6.84657 0.645592L6.8483 0.646168ZM7.86368 2.11501C8.16945 2.27136 8.37484 2.58405 8.37484 2.94521C8.37484 3.20309 8.26984 3.43675 8.10022 3.60521C7.95945 3.76386 7.75464 3.86367 7.52676 3.86367C7.49618 3.86367 7.46618 3.86194 7.43618 3.85848L7.43965 3.85905C7.41368 3.86194 7.38368 3.86425 7.35311 3.86425C7.12522 3.86425 6.92099 3.76444 6.7808 3.60694L6.78022 3.60636C6.6083 3.44598 6.50099 3.21751 6.50099 2.96482C6.50099 2.90078 6.50791 2.8379 6.52118 2.7779L6.52003 2.78367C6.60138 2.34232 6.98272 2.0129 7.44138 2.0129C7.59657 2.0129 7.74253 2.0504 7.87176 2.11732L7.86657 2.11501H7.86368ZM8.05811 7.53232C8.35464 7.67713 8.58888 7.91194 8.72849 8.20098L8.73195 8.20963C8.79888 8.34059 8.83811 8.49521 8.83811 8.65848C8.83811 8.70463 8.83522 8.75021 8.82888 8.79463L8.82945 8.78944C8.83465 8.82924 8.83811 8.8754 8.83811 8.92213C8.83811 9.09982 8.79368 9.26655 8.7158 9.41309L8.71868 9.40732C8.51849 9.81982 8.13599 10.1164 7.67849 10.1942L7.66984 10.1954C7.60407 10.2064 7.52791 10.2121 7.45061 10.2121C6.88407 10.2121 6.39426 9.88271 6.16291 9.40559L6.15945 9.39694C6.08618 9.25963 6.04291 9.09694 6.04291 8.92386C6.04291 8.87655 6.04638 8.82982 6.05272 8.78367L6.05215 8.78886C6.04638 8.74905 6.04349 8.7029 6.04349 8.65559C6.04349 8.49578 6.08099 8.34463 6.14734 8.21021L6.14445 8.21598C6.31349 7.85771 6.61349 7.58482 6.98157 7.45501L6.99195 7.45213C7.10676 7.41059 7.23945 7.38694 7.37791 7.38694C7.42061 7.38694 7.4633 7.38925 7.50484 7.39386L7.49964 7.39328C7.51118 7.39271 7.52445 7.39271 7.5383 7.39271C7.73041 7.39271 7.91099 7.44405 8.06618 7.53348L8.06099 7.53059L8.05811 7.53232ZM2.63849 10.8196C2.89407 10.8987 3.10003 11.0741 3.21772 11.3025L3.22003 11.3077C3.28868 11.4098 3.32907 11.5356 3.32907 11.6706C3.32907 11.7081 3.32618 11.7444 3.31984 11.7802L3.32041 11.7762C3.31003 12.15 3.07522 12.4662 2.74695 12.5971L2.74061 12.5994C2.63907 12.6358 2.52138 12.6571 2.39907 12.6571C2.22715 12.6571 2.06503 12.6156 1.92195 12.5412L1.92772 12.5441C1.64561 12.3825 1.45811 12.0831 1.45811 11.7398C1.45811 11.7087 1.45984 11.6775 1.46272 11.6475L1.46215 11.6516C1.47484 11.4277 1.57349 11.2287 1.7258 11.0862L1.72638 11.0856C1.89022 10.901 2.12791 10.785 2.3933 10.785C2.48041 10.785 2.56465 10.7977 2.64426 10.8208L2.63791 10.8191L2.63849 10.8196ZM12.8477 10.8542C13.0773 10.9552 13.262 11.1237 13.3796 11.3348L13.3825 11.3406C13.4264 11.4531 13.4518 11.5835 13.4518 11.7196C13.4518 11.8754 13.4189 12.0231 13.3589 12.1564L13.3618 12.1494C13.2135 12.4541 12.9066 12.66 12.5512 12.66C12.5431 12.66 12.535 12.66 12.527 12.6594H12.5281C12.5189 12.66 12.5085 12.66 12.4981 12.66C12.0071 12.66 11.6079 12.2671 11.5981 11.7785V11.7773C11.5929 11.7462 11.5895 11.7098 11.5895 11.6729C11.5895 11.5356 11.6316 11.4081 11.7037 11.3031L11.702 11.3054C11.8485 10.9979 12.1571 10.7891 12.5143 10.7891C12.6348 10.7891 12.7502 10.8127 12.8552 10.856L12.8495 10.8537L12.8477 10.8542Z" fill="black" fill-opacity="0.6"/>
</g>
<defs>
<clipPath id="clip0_38_60">
<rect width="15" height="15" fill="white"/>
</clipPath>
</defs>
</svg>
