<svg width="30" height="30" viewBox="0 0 30 30" fill="none" xmlns="http://www.w3.org/2000/svg">
<circle cx="15" cy="15" r="15" fill="#000BE2" fill-opacity="0.15"/>
<path d="M10.3438 12.6875C11.6382 12.6875 12.6875 11.6382 12.6875 10.3438C12.6875 9.04933 11.6382 8 10.3438 8C9.04933 8 8 9.04933 8 10.3438C8 11.6382 9.04933 12.6875 10.3438 12.6875Z" stroke="#000BE2" stroke-width="2" stroke-linecap="round" stroke-linejoin="round"/>
<path d="M18.7812 12.6875C20.0757 12.6875 21.125 11.6382 21.125 10.3438C21.125 9.04933 20.0757 8 18.7812 8C17.4868 8 16.4375 9.04933 16.4375 10.3438C16.4375 11.6382 17.4868 12.6875 18.7812 12.6875Z" stroke="#000BE2" stroke-width="2" stroke-linecap="round" stroke-linejoin="round"/>
<path d="M10.3438 21.125C11.6382 21.125 12.6875 20.0757 12.6875 18.7812C12.6875 17.4868 11.6382 16.4375 10.3438 16.4375C9.04933 16.4375 8 17.4868 8 18.7812C8 20.0757 9.04933 21.125 10.3438 21.125Z" stroke="#000BE2" stroke-width="2" stroke-linecap="round" stroke-linejoin="round"/>
<path d="M18.7812 21.125C20.0757 21.125 21.125 20.0757 21.125 18.7812C21.125 17.4868 20.0757 16.4375 18.7812 16.4375C17.4868 16.4375 16.4375 17.4868 16.4375 18.7812C16.4375 20.0757 17.4868 21.125 18.7812 21.125Z" stroke="#000BE2" stroke-width="2" stroke-linecap="round" stroke-linejoin="round"/>
</svg>
