<svg xmlns="http://www.w3.org/2000/svg" width="32" height="32" viewBox="0 0 24 24" fill="black">
  <path fill="white" d="M12 .5C5.73.5.5 5.73.5 12c0 5.08 3.29 9.39 7.86 10.91.58.11.79-.25.79-.56v-2.18c-3.2.69-3.88-1.54-3.88-1.54-.52-1.32-1.27-1.67-1.27-1.67-1.04-.71.08-.7.08-.7 1.15.08 1.75 1.18 1.75 1.18 1.02 1.74 2.67 1.24 3.32.95.1-.74.4-1.24.73-1.52-2.56-.29-5.26-1.28-5.26-5.7 0-1.26.45-2.3 1.18-3.11-.12-.29-.51-1.46.11-3.04 0 0 .96-.31 3.14 1.18a10.87 10.87 0 0 1 5.72 0c2.17-1.5 3.13-1.18 3.13-1.18.63 1.58.24 2.75.12 3.04.74.81 1.18 1.85 1.18 3.11 0 4.43-2.71 5.41-5.29 5.69.41.35.78 1.04.78 2.1v3.12c0 .31.21.68.8.56A10.52 10.52 0 0 0 23.5 12C23.5 5.73 18.27.5 12 .5Z"/>
</svg>
