<svg width="15" height="15" viewBox="0 0 15 15" fill="none" xmlns="http://www.w3.org/2000/svg">
<g clip-path="url(#clip0_38_77)">
<path d="M8.4375 1.25L8.74756 1.21124C8.72806 1.05486 8.59513 0.9375 8.4375 0.9375V1.25ZM6.5625 1.25V0.9375C6.40487 0.9375 6.27194 1.05486 6.25244 1.21124L6.5625 1.25ZM8.60919 2.62346L8.29912 2.66222C8.31544 2.79281 8.41181 2.89917 8.54012 2.92824L8.60919 2.62346ZM10.1636 3.26774L9.99687 3.53206C10.1082 3.60226 10.2515 3.59521 10.3554 3.51441L10.1636 3.26774ZM11.2565 2.41766L11.4775 2.19669C11.3661 2.08525 11.1891 2.07423 11.0646 2.17099L11.2565 2.41766ZM12.5823 3.74349L12.829 3.93534C12.9257 3.81094 12.9148 3.63396 12.8033 3.52252L12.5823 3.74349ZM11.7323 4.83644L11.4856 4.64459C11.4048 4.74846 11.3977 4.89183 11.4679 5.00314L11.7323 4.83644ZM12.3766 6.39081L12.0718 6.45988C12.1008 6.58819 12.2072 6.68456 12.3378 6.70088L12.3766 6.39081ZM13.75 6.5625H14.0625C14.0625 6.40487 13.9451 6.27194 13.7887 6.25244L13.75 6.5625ZM13.75 8.4375L13.7887 8.74756C13.9451 8.72806 14.0625 8.59513 14.0625 8.4375H13.75ZM12.3766 8.60919L12.3378 8.29912C12.2072 8.31544 12.1008 8.41181 12.0718 8.54012L12.3766 8.60919ZM11.7323 10.1636L11.4679 9.99687C11.3977 10.1082 11.4048 10.2516 11.4856 10.3554L11.7323 10.1636ZM12.5823 11.2565L12.8033 11.4775C12.9148 11.3661 12.9257 11.1891 12.829 11.0646L12.5823 11.2565ZM11.2565 12.5823L11.0646 12.829C11.1891 12.9257 11.3661 12.9148 11.4775 12.8033L11.2565 12.5823ZM10.1636 11.7323L10.3554 11.4856C10.2515 11.4048 10.1082 11.3977 9.99687 11.4679L10.1636 11.7323ZM8.60919 12.3766L8.54012 12.0718C8.41181 12.1008 8.31544 12.2072 8.29912 12.3378L8.60919 12.3766ZM8.4375 13.75V14.0625C8.59513 14.0625 8.72806 13.9451 8.74756 13.7887L8.4375 13.75ZM6.5625 13.75L6.25244 13.7887C6.27194 13.9451 6.40487 14.0625 6.5625 14.0625V13.75ZM6.39081 12.3766L6.70088 12.3378C6.68456 12.2072 6.58819 12.1008 6.45988 12.0718L6.39081 12.3766ZM4.83645 11.7323L5.00315 11.4679C4.89184 11.3977 4.74848 11.4048 4.64459 11.4856L4.83645 11.7323ZM3.74349 12.5823L3.52253 12.8033C3.63397 12.9148 3.81095 12.9257 3.93535 12.829L3.74349 12.5823ZM2.41767 11.2565L2.171 11.0646C2.07424 11.1891 2.08526 11.3661 2.1967 11.4775L2.41767 11.2565ZM3.26774 10.1636L3.51442 10.3554C3.59521 10.2516 3.60227 10.1082 3.53207 9.99687L3.26774 10.1636ZM2.62346 8.60919L2.92824 8.54012C2.89917 8.41181 2.79281 8.31544 2.66222 8.29912L2.62346 8.60919ZM1.25 8.4375H0.9375C0.9375 8.59513 1.05486 8.72806 1.21124 8.74756L1.25 8.4375ZM1.25 6.5625L1.21124 6.25244C1.05486 6.27194 0.9375 6.40487 0.9375 6.5625H1.25ZM2.62346 6.39081L2.66222 6.70088C2.79281 6.68456 2.89917 6.58819 2.92824 6.45988L2.62346 6.39081ZM3.26774 4.83644L3.53207 5.00314C3.60227 4.89183 3.59521 4.74847 3.51442 4.64459L3.26774 4.83644ZM2.41767 3.74349L2.1967 3.52252C2.08526 3.63396 2.07424 3.81094 2.17099 3.93535L2.41767 3.74349ZM3.74349 2.41767L3.93535 2.17099C3.81095 2.07424 3.63396 2.08526 3.52253 2.19669L3.74349 2.41767ZM4.83645 3.26774L4.64459 3.51441C4.74847 3.59521 4.89184 3.60227 5.00315 3.53206L4.83645 3.26774ZM6.39081 2.62346L6.45988 2.92824C6.58819 2.89917 6.68456 2.79281 6.70088 2.66222L6.39081 2.62346ZM8.4375 0.9375H6.5625V1.5625H8.4375V0.9375ZM8.91925 2.5847L8.74756 1.21124L8.12744 1.28876L8.29912 2.66222L8.91925 2.5847ZM10.3302 3.00342C9.82994 2.68787 9.27306 2.45341 8.67819 2.31868L8.54012 2.92824C9.06437 3.04698 9.55538 3.25364 9.99687 3.53206L10.3302 3.00342ZM10.3554 3.51441L11.4484 2.66434L11.0646 2.17099L9.97169 3.02107L10.3554 3.51441ZM11.0356 2.63864L12.3614 3.96446L12.8033 3.52252L11.4775 2.19669L11.0356 2.63864ZM12.3357 3.55163L11.4856 4.64459L11.9789 5.0283L12.829 3.93534L12.3357 3.55163ZM12.6813 6.32181C12.5466 5.72696 12.3121 5.17008 11.9966 4.66974L11.4679 5.00314C11.7464 5.44461 11.953 5.93559 12.0718 6.45988L12.6813 6.32181ZM13.7887 6.25244L12.4153 6.08073L12.3378 6.70088L13.7113 6.87256L13.7887 6.25244ZM14.0625 8.4375V6.5625H13.4375V8.4375H14.0625ZM12.4153 8.91925L13.7887 8.74756L13.7113 8.12744L12.3378 8.29912L12.4153 8.91925ZM11.9966 10.3302C12.3121 9.82994 12.5466 9.27306 12.6813 8.67819L12.0718 8.54012C11.953 9.06437 11.7464 9.55538 11.4679 9.99687L11.9966 10.3302ZM12.829 11.0646L11.9789 9.97169L11.4856 10.3554L12.3357 11.4484L12.829 11.0646ZM11.4775 12.8033L12.8033 11.4775L12.3614 11.0356L11.0356 12.3614L11.4775 12.8033ZM9.97169 11.9789L11.0646 12.829L11.4484 12.3357L10.3554 11.4856L9.97169 11.9789ZM8.67819 12.6813C9.27306 12.5466 9.82994 12.3121 10.3302 11.9966L9.99687 11.4679C9.55538 11.7464 9.06437 11.953 8.54012 12.0718L8.67819 12.6813ZM8.74756 13.7887L8.91925 12.4153L8.29912 12.3378L8.12744 13.7113L8.74756 13.7887ZM6.5625 14.0625H8.4375V13.4375H6.5625V14.0625ZM6.08073 12.4153L6.25244 13.7887L6.87256 13.7113L6.70088 12.3378L6.08073 12.4153ZM4.66975 11.9966C5.17009 12.3121 5.72696 12.5466 6.32181 12.6813L6.45988 12.0718C5.9356 11.953 5.44462 11.7464 5.00315 11.4679L4.66975 11.9966ZM3.93535 12.829L5.02831 11.9789L4.64459 11.4856L3.55164 12.3357L3.93535 12.829ZM2.1967 11.4775L3.52253 12.8033L3.96447 12.3614L2.63864 11.0356L2.1967 11.4775ZM3.02108 9.97169L2.171 11.0646L2.66434 11.4484L3.51442 10.3554L3.02108 9.97169ZM2.31868 8.67819C2.45341 9.27306 2.68787 9.82994 3.00342 10.3302L3.53207 9.99687C3.25365 9.55538 3.04698 9.06437 2.92824 8.54012L2.31868 8.67819ZM1.21124 8.74756L2.5847 8.91925L2.66222 8.29912L1.28876 8.12744L1.21124 8.74756ZM0.9375 6.5625V8.4375H1.5625V6.5625H0.9375ZM2.5847 6.08073L1.21124 6.25244L1.28876 6.87256L2.66222 6.70088L2.5847 6.08073ZM3.00342 4.66974C2.68787 5.17008 2.45341 5.72696 2.31868 6.32181L2.92824 6.45988C3.04698 5.9356 3.25364 5.44461 3.53207 5.00314L3.00342 4.66974ZM2.17099 3.93535L3.02107 5.0283L3.51442 4.64459L2.66434 3.55164L2.17099 3.93535ZM3.52253 2.19669L2.1967 3.52252L2.63864 3.96446L3.96446 2.63864L3.52253 2.19669ZM5.02831 3.02107L3.93535 2.17099L3.55164 2.66434L4.64459 3.51441L5.02831 3.02107ZM6.32181 2.31868C5.72696 2.45341 5.17009 2.68787 4.66975 3.00342L5.00315 3.53206C5.44462 3.25364 5.9356 3.04698 6.45988 2.92824L6.32181 2.31868ZM6.25244 1.21124L6.08073 2.5847L6.70088 2.66222L6.87256 1.28876L6.25244 1.21124Z" fill="black"/>
<path d="M7.5 10C8.88071 10 10 8.88071 10 7.5C10 6.11929 8.88071 5 7.5 5C6.11929 5 5 6.11929 5 7.5C5 8.88071 6.11929 10 7.5 10Z" stroke="black" stroke-linejoin="round"/>
</g>
<defs>
<clipPath id="clip0_38_77">
<rect width="15" height="15" fill="white"/>
</clipPath>
</defs>
</svg>
